# xmcd
#
# Track frame offsets: 
#        150
#        10820
#        27282
#        46008
#        63627
#        81145
#        91641
#        108547
#        126175
#        144687
#        161305
#        185346
#
# Disc length: 2847 seconds
#
# Revision: 2
# Processed by: cddbd v1.5.2PL0 Copyright (c) Steve Scherf et al.
# Submitted via: ExactAudioCopy v1.1
#
DISCID=910b1d0c
DTITLE=Sela - Gloria
DYEAR=2009
DGENRE=Gospel
TTITLE0=Preludium
TTITLE1=Wijs mij de weg naar Bethlehem
TTITLE2=Kom tot ons de wereld wacht
TTITLE3=Magnificat
TTITLE4=Stille nacht
TTITLE5=Kom, vier het feest met mij
TTITLE6=Ik ben
TTITLE7=Zo is het beloofd
TTITLE8=Op U mijn Heiland blijf ik hopen
TTITLE9=Vreugdevuur
TTITLE10=Volheid van genade
TTITLE11=Klein Gloria (Gloria Patri)
EXTD=
EXTT0=
EXTT1=
EXTT2=
EXTT3=
EXTT4=
EXTT5=
EXTT6=
EXTT7=
EXTT8=
EXTT9=
EXTT10=
EXTT11=
PLAYORDER=
